<?xml version="1.0" encoding="UTF-8" standalone="no"?>
<svg width="40px" height="40px" viewBox="0 0 40 40" version="1.1" xmlns="http://www.w3.org/2000/svg" xmlns:xlink="http://www.w3.org/1999/xlink" xmlns:sketch="http://www.bohemiancoding.com/sketch/ns">
    <!-- Generator: Sketch 3.3 (11970) - http://www.bohemiancoding.com/sketch -->
    <title>Rectangle 1 + Fill-4</title>
    <desc>Created with Sketch.</desc>
    <defs></defs>
    <g id="Page-1" stroke="none" stroke-width="1" fill="none" fill-rule="evenodd" sketch:type="MSPage">
        <g id="Rectangle-1-+-Fill-4" sketch:type="MSLayerGroup">
            <rect id="Rectangle-1" fill="#D8D8D8" sketch:type="MSShapeGroup" x="0" y="0" width="40" height="40"></rect>
            <path d="M31.123893,26.4902585 C30.610639,26.2196184 26.9089518,24.4038171 25.5193672,23.6720865 C25.2802314,23.5461723 24.8592156,23.603431 24.7054853,23.895217 C24.3093396,24.6474069 22.5763559,25.7309284 19.9800232,25.8935047 C17.3484351,25.7309284 15.661912,24.3727848 15.2656297,23.6205949 C15.1118995,23.3288089 14.7019522,23.2715502 14.4628163,23.3974644 C13.0732317,24.129195 9.37154458,26.2196184 8.8582906,26.4902585 C5.4072179,28.3104538 4.98811514,31.0044967 5.13091344,32.2941221 C5.24474213,33.3239549 6.24678989,33.2323685 6.24678989,33.2323685 L33.7353936,33.2323685 C33.7353936,33.2323685 34.7374414,33.3239549 34.8512702,32.2941221 C34.9940684,31.0044967 34.5749657,28.3104538 31.123893,26.4902585 L31.123893,26.4902585 Z M15.0449414,17.6974081 C15.5601085,19.1772093 16.2467701,20.3123597 16.9737432,21.1325187 L16.9737432,22.2474844 L16.9763396,22.2474844 C16.9752464,22.2474844 16.9737432,22.2911493 16.9737432,22.3072146 C16.9737432,23.127099 18.5186979,24.0723482 20.2557811,24.0723482 C21.9927276,24.0723482 23.264384,23.1240781 23.264384,22.3041939 C23.264384,22.2882658 23.2627442,22.2474844 23.2616511,22.2474844 L23.2596013,22.2474844 L23.2596013,20.7566982 C23.8965227,19.9335186 24.4413426,18.897644 24.8480103,17.7140227 C25.3627674,17.7791081 25.9800114,17.1607965 26.2712106,16.2593494 C26.5826339,15.2947393 26.403077,14.372009 25.8698722,14.1980359 C25.7677953,14.1648067 25.6602525,14.1617858 25.5510699,14.1847167 C25.5610452,13.6342367 25.5051558,13.0954282 25.389004,12.5791386 C25.8556607,11.4196841 25.0275672,9.10338399 23.1573878,7.82282112 C21.1940137,6.47840862 18.6262407,6.81179985 17.8467943,7.80483338 C16.9889113,7.74112105 15.6919748,8.34405388 14.9402682,9.48648182 C14.3166018,10.4346146 14.2400783,11.5726486 14.4767545,12.3679542 C14.3381923,12.9504277 14.276017,13.5640708 14.302117,14.1948778 C14.180226,14.1628843 14.0598381,14.1610992 13.9464194,14.1980359 C13.413078,14.372009 13.2335211,15.2947393 13.5449444,16.2593494 C13.850765,17.2062464 14.5162461,17.8392504 15.0449414,17.6974081 L15.0449414,17.6974081 Z" id="Fill-4" fill="#FFFFFF" sketch:type="MSShapeGroup"></path>
        </g>
    </g>
</svg>