<?xml version="1.0" encoding="UTF-8" standalone="no"?>
<svg width="81px" height="115px" viewBox="0 0 81 115" version="1.1" xmlns="http://www.w3.org/2000/svg" xmlns:xlink="http://www.w3.org/1999/xlink" xmlns:sketch="http://www.bohemiancoding.com/sketch/ns">
    <!-- Generator: Sketch 3.3.2 (12043) - http://www.bohemiancoding.com/sketch -->
    <title>Imported Layers 4</title>
    <desc>Created with Sketch.</desc>
    <defs></defs>
    <g id="Page-1" stroke="none" stroke-width="1" fill="none" fill-rule="evenodd" sketch:type="MSPage">
        <g id="Artboard-36-Copy" sketch:type="MSArtboardGroup" transform="translate(-55.000000, -349.000000)" fill="#FFFFFF">
            <g id="Oval-427-+-Imported-Layers-4" sketch:type="MSLayerGroup" transform="translate(5.000000, 314.000000)">
                <path d="M124.267007,81.3202073 C122.972935,80.967903 121.443578,80.5032073 118.622328,83.3021887 C117.252007,84.6595327 118.652828,84.5190432 118.502507,84.5860459 C117.659399,84.9578025 118.031935,80.0363501 114.864292,78.0543686 C111.925399,76.2171993 109.574721,77.7042258 107.864542,79.0896676 C106.844971,79.9217972 106.912507,80.1725168 106.278542,78.2877972 C106.104257,77.7625829 105.097757,74.1055353 103.572757,72.9232628 C100.869149,70.8224057 97.4270066,71.3951702 96.0545066,72.9232628 C94.0545781,75.1386729 93.7299709,76.7078316 92.9347923,76.7726729 C92.2245781,76.8288686 92.1134709,76.1869401 92.0546495,75.8389586 C91.6668638,73.5262866 91.3727566,65.8058528 91.3727566,64.0378475 C91.3727566,61.2842549 92.6668281,43.2259612 92.2877566,41.084038 C91.8324352,38.466612 91.3422566,36.5581173 88.6843995,35.5746914 C86.0831852,34.6107178 83.6845781,36.2533633 82.7695781,37.6388051 C81.3731138,39.7483078 80.4406852,52.5674268 79.9788281,57.0176993 C79.5278638,61.3988078 79.0638281,68.522702 79.1771138,76.266911 C79.2925781,84.0132813 76.9963638,99.194784 76.4255781,97.1263475 C75.8504352,95.0643951 73.1010781,90.5773792 71.0379709,87.9945353 C68.9748638,85.4138528 64.3802566,81.8432602 59.4479709,79.9866385 C54.5091495,78.125694 50.8404352,78.9535009 50.2674709,81.6379295 C49.8317566,83.6782681 52.1780781,84.9016067 53.4786852,85.7704798 C55.1714352,86.8922337 58.9861138,89.7949612 60.1320423,92.1724745 C61.2779709,94.5478263 61.9663995,97.4375856 62.6570066,98.4728845 C63.3454352,99.5016993 64.3628281,102.119125 65.7200781,105.493033 C67.2472566,109.312183 69.0140781,111.761022 72.2187566,115.130607 C78.8176495,122.072945 82.0288638,127.258086 83.1181495,130.482858 C83.6039709,131.907205 85.8870635,136.054884 85.5624564,140.989305 L85.5624564,149.236511 L119.47678,149.236511 C119.47678,149.236511 119.52253,137.98283 119.435388,136.476351 C119.250209,133.36397 121.859685,131.515996 125.646042,123.458387 C129.434578,115.407263 128.589292,107.969969 129.358328,104.667387 C130.029328,101.756014 130.506435,96.8756279 130.142614,93.4498475 C129.966149,91.7358766 129.911685,89.3648475 128.968364,86.686903 C127.894328,83.6307178 126.606792,81.9534903 124.267007,81.3202073 Z" id="Imported-Layers-4" sketch:type="MSShapeGroup"></path>
            </g>
        </g>
    </g>
</svg>